<?xml version="1.0" encoding="UTF-8" standalone="no"?>
<!-- Created with Inkscape (http://www.inkscape.org/) -->

<svg
   width="1920px"
   height="1080px"
   viewBox="0 0 1920 1080"
   version="1.1"
   id="SVGRoot"
   sodipodi:docname="ArtemisLockupWhite.svg"
   inkscape:version="1.1.1 (3bf5ae0d25, 2021-09-20)"
   xmlns:inkscape="http://www.inkscape.org/namespaces/inkscape"
   xmlns:sodipodi="http://sodipodi.sourceforge.net/DTD/sodipodi-0.dtd"
   xmlns="http://www.w3.org/2000/svg"
   xmlns:svg="http://www.w3.org/2000/svg">
  <sodipodi:namedview
     id="namedview14"
     pagecolor="#505050"
     bordercolor="#eeeeee"
     borderopacity="1"
     inkscape:pageshadow="0"
     inkscape:pageopacity="0"
     inkscape:pagecheckerboard="0"
     inkscape:document-units="px"
     showgrid="false"
     inkscape:zoom="0.64"
     inkscape:cx="725.78125"
     inkscape:cy="498.4375"
     inkscape:window-width="1920"
     inkscape:window-height="974"
     inkscape:window-x="-11"
     inkscape:window-y="1069"
     inkscape:window-maximized="1"
     inkscape:current-layer="layer1" />
  <defs
     id="defs9">
    <rect
       x="558.7114"
       y="375.22315"
       width="1261.7394"
       height="307.18818"
       id="rect20375" />
    <rect
       x="564.89639"
       y="443.25812"
       width="1288.541"
       height="245.33821"
       id="rect5923" />
  </defs>
  <g
     inkscape:label="Layer 1"
     inkscape:groupmode="layer"
     id="layer1">
    <path
       style="fill:#ffffff;fill-opacity:1;stroke:#000000;stroke-width:0.819819px;stroke-linecap:butt;stroke-linejoin:miter;stroke-opacity:1"
       d="m 406.99456,743.70397 88.22391,-233.86319 c 0,0 8.65885,-24.21654 14.85291,-0.43574 8.52788,32.74106 86.60813,236.82906 88.11662,233.46407 l 70.57476,-1.2523 -110.87223,-269.8292 c 0,0 -52.46302,-127.14145 -118.41399,5.93962 -18.4379,37.20545 -98.59222,256.16986 -101.34583,264.72444 z"
       id="path204"
       sodipodi:nodetypes="ccscccscc" />
    <text
       xml:space="preserve"
       id="text20373"
       style="font-weight:600;font-size:266.667px;line-height:1.25;font-family:Raleway;-inkscape-font-specification:'Raleway Semi-Bold';white-space:pre;shape-inside:url(#rect20375);fill:#ffffff"
       transform="translate(112.36999,119.29331)"><tspan
         x="558.71094"
         y="622.07134"
         id="tspan35399">RTEMIS</tspan></text>
    <circle
       id="path32430"
       style="fill:#000000;stroke:#000000"
       cx="441.71878"
       cy="489.82678"
       r="0.091739029" />
    <circle
       id="path32432"
       style="fill:#000000;stroke:#000000"
       cx="441.71878"
       cy="489.82678"
       r="0.091739029" />
    <path
       style="fill:#ffffff;fill-opacity:1"
       id="path34304"
       d="m 600.02858,613.4532 c -28.27958,0.4652 -56.55313,0.61445 -84.82943,1.5e-4 -10.00619,-0.74458 -20.07855,-0.86469 -30.01856,-2.23375 -46.37232,-6.38697 -96.40532,-21.17657 -135.86486,-46.96188 -9.30627,-6.08129 -17.56694,-13.6293 -26.35041,-20.44395 -7.02915,-8.09544 -15.16819,-15.34724 -21.08745,-24.28634 -19.55493,-29.53133 -24.04473,-58.58897 -12.74091,-92.28041 10.35807,-30.87261 20.18902,-38.82555 40.14214,-64.47097 12.58145,-9.26408 24.51114,-19.48571 37.74434,-27.79223 5.07086,-3.183 11.07334,-4.59095 16.77172,-6.42768 19.70996,-6.35302 39.23267,-13.51855 59.42097,-18.13114 42.90975,-9.80395 91.13393,-13.99727 135.02765,-14.46981 22.69488,-0.24432 45.36626,1.54003 68.04939,2.31004 124.44282,10.39575 245.07472,44.77944 361.88443,87.61939 21.4725,7.87505 42.6702,16.48004 64.0053,24.72006 86.9081,31.56181 172.6927,66.91659 261.5628,92.74832 34.3732,9.0961 69.4515,15.06412 104.272,22.13766 0,0 31.025,-21.64154 31.025,-21.64154 v 0 c -35.1829,-6.56467 -70.5751,-12.22098 -105.282,-21.07506 -90.2142,-24.32568 -177.8121,-57.40885 -265.3628,-89.78995 -21.5264,-8.15076 -42.9271,-16.64174 -64.5793,-24.45228 -38.45653,-13.87233 -105.88077,-36.55398 -144.79604,-47.43111 -24.45823,-6.83627 -49.17962,-12.73173 -73.965,-18.26567 -74.71227,-16.68134 -69.48192,-14.24889 -143.08301,-23.08984 -22.74587,-0.83946 -45.47678,-2.67318 -68.2376,-2.51839 -43.39585,0.29513 -92.29223,4.271 -134.84468,13.38893 -19.9524,4.2753 -40.06594,8.90008 -58.83528,16.90562 -59.58673,25.41509 -68.73899,35.51272 -112.8941,69.05079 -19.8459,26.16015 -30.12399,34.86737 -40.13887,66.30202 -11.04281,34.66113 -5.8631,65.0166 14.1484,95.17471 6.05878,9.13082 14.3778,16.54092 21.5667,24.81137 8.93057,6.94395 17.33111,14.62941 26.79173,20.83186 30.53788,20.02085 65.60282,32.0695 100.75092,40.92337 11.72276,2.95298 23.52231,5.69868 35.45838,7.6153 9.76407,1.56786 19.68869,1.88043 29.53304,2.82064 27.65169,1.15556 55.29843,1.20715 82.96977,1.49537 0,0 31.78562,-23.0936 31.78562,-23.0936 z" />
  </g>
</svg>
