<?xml version="1.0" encoding="UTF-8" standalone="no"?>
<!-- Created with Inkscape (http://www.inkscape.org/) -->

<svg
   width="1920px"
   height="1080px"
   viewBox="0 0 1920 1080"
   version="1.1"
   id="SVGRoot"
   sodipodi:docname="FullColorIcon.svg"
   inkscape:version="1.1.1 (3bf5ae0d25, 2021-09-20)"
   inkscape:export-filename="C:\Users\rpmul\Documents\artemis\images\FullColorIcon.png"
   inkscape:export-xdpi="96"
   inkscape:export-ydpi="96"
   xmlns:inkscape="http://www.inkscape.org/namespaces/inkscape"
   xmlns:sodipodi="http://sodipodi.sourceforge.net/DTD/sodipodi-0.dtd"
   xmlns:xlink="http://www.w3.org/1999/xlink"
   xmlns="http://www.w3.org/2000/svg"
   xmlns:svg="http://www.w3.org/2000/svg">
  <sodipodi:namedview
     id="namedview14"
     pagecolor="#505050"
     bordercolor="#eeeeee"
     borderopacity="1"
     inkscape:pageshadow="0"
     inkscape:pageopacity="0"
     inkscape:pagecheckerboard="0"
     inkscape:document-units="px"
     showgrid="false"
     inkscape:zoom="0.64"
     inkscape:cx="930.46875"
     inkscape:cy="439.0625"
     inkscape:window-width="1920"
     inkscape:window-height="974"
     inkscape:window-x="-11"
     inkscape:window-y="-11"
     inkscape:window-maximized="1"
     inkscape:current-layer="layer1" />
  <defs
     id="defs9">
    <linearGradient
       inkscape:collect="always"
       id="linearGradient1471">
      <stop
         style="stop-color:#ffffff;stop-opacity:1"
         offset="0"
         id="stop1467" />
      <stop
         style="stop-color:#a800ff;stop-opacity:1"
         offset="1"
         id="stop1469" />
    </linearGradient>
    <linearGradient
       inkscape:collect="always"
       id="linearGradient1333">
      <stop
         style="stop-color:#ff00ff;stop-opacity:1"
         offset="0"
         id="stop1329" />
      <stop
         style="stop-color:#0000f4;stop-opacity:1"
         offset="1"
         id="stop1331" />
    </linearGradient>
    <rect
       x="558.7114"
       y="375.22315"
       width="1261.7394"
       height="307.18818"
       id="rect20375" />
    <rect
       x="564.89639"
       y="443.25812"
       width="1288.541"
       height="245.33821"
       id="rect5923" />
    <radialGradient
       inkscape:collect="always"
       xlink:href="#linearGradient1333"
       id="radialGradient1985"
       cx="1739.7527"
       cy="-408.45688"
       fx="1739.7527"
       fy="-408.45691"
       r="468.81646"
       gradientTransform="matrix(-0.73810058,-0.38525181,0.23536576,-0.45093516,2246.2261,1141.7212)"
       gradientUnits="userSpaceOnUse" />
    <radialGradient
       inkscape:collect="always"
       xlink:href="#linearGradient1471"
       id="radialGradient1987"
       cx="641.3233"
       cy="718.06281"
       fx="641.3233"
       fy="718.06281"
       r="165.8993"
       gradientTransform="matrix(0.09045692,-0.99590036,1.4315468,0.13002636,8.1431103,1355.3733)"
       gradientUnits="userSpaceOnUse" />
  </defs>
  <g
     inkscape:label="Layer 1"
     inkscape:groupmode="layer"
     id="layer1">
    <path
       style="fill:url(#radialGradient1987);fill-opacity:1;stroke:#000000;stroke-width:0.819819px;stroke-linecap:butt;stroke-linejoin:miter;stroke-opacity:1"
       d="m 774.18206,774.95397 88.22391,-233.86319 c 0,0 8.65885,-24.21654 14.85291,-0.43574 8.52788,32.74106 86.60813,236.82906 88.11662,233.46407 l 70.5748,-1.2523 -110.87227,-269.8292 c 0,0 -52.46302,-127.14145 -118.41399,5.93962 -18.4379,37.20545 -98.59222,256.16986 -101.34583,264.72444 z"
       id="path204"
       sodipodi:nodetypes="ccscccscc" />
    <circle
       id="path32430"
       style="fill:#000000;stroke:#000000"
       cx="441.71878"
       cy="489.82678"
       r="0.091739029" />
    <circle
       id="path32432"
       style="fill:#000000;stroke:#000000"
       cx="441.71878"
       cy="489.82678"
       r="0.091739029" />
    <path
       id="path34304"
       style="fill:url(#radialGradient1985);fill-opacity:1"
       d="m 970.92383,308.47656 c -43.39585,0.29513 -92.2913,4.27074 -134.84375,13.38867 -19.9524,4.2753 -40.0666,8.90071 -58.83594,16.90625 -59.58673,25.41509 -68.73942,35.51272 -112.89453,69.05079 -19.8459,26.16015 -30.12379,34.86808 -40.13867,66.30273 -11.04281,34.66113 -5.86306,65.01572 14.14844,95.17383 6.05878,9.13082 14.3775,16.54008 21.5664,24.81055 8.93057,6.94393 17.33235,14.62958 26.79297,20.83203 30.53788,20.02085 65.6019,32.06995 100.75,40.92382 11.72276,2.95298 23.52291,5.69862 35.45898,7.61524 9.76407,1.56786 19.68886,1.8801 29.53321,2.82031 27.65169,1.15556 55.29741,1.20787 82.96875,1.4961 l 31.78711,-23.09376 c -28.27958,0.4652 -56.55378,0.6143 -84.83008,0 -10.00619,-0.74458 -20.07952,-0.86531 -30.01953,-2.23437 -46.37232,-6.38697 -96.40374,-21.17563 -135.86328,-46.96094 -9.30627,-6.08129 -17.5681,-13.62871 -26.35157,-20.44336 -7.02915,-8.09544 -15.16863,-15.34801 -21.08789,-24.28711 -19.55493,-29.53133 -24.04405,-58.58981 -12.74023,-92.28125 10.35807,-30.87261 20.18946,-38.82528 40.14258,-64.4707 12.58145,-9.26408 24.51094,-19.48449 37.74414,-27.79101 5.07086,-3.183 11.0731,-4.59101 16.77148,-6.42774 19.70996,-6.35302 39.23358,-13.51827 59.42188,-18.13086 42.90975,-9.80395 91.13362,-13.99816 135.02734,-14.4707 22.69488,-0.24432 45.3657,1.54054 68.04886,2.31054 124.4428,10.39576 245.0751,44.7792 361.8847,87.61915 20.5532,7.53789 40.8545,15.74688 61.2657,23.66211 -2.2333,-8.32372 -3.0608,-17.6556 0.08,-27.4961 -11.881,-4.56179 -23.734,-9.20124 -35.705,-13.51953 -38.4566,-13.87233 -105.8797,-36.55256 -144.795,-47.42969 -24.4582,-6.83627 -49.1814,-12.73168 -73.9668,-18.26562 -74.7122,-16.68134 -69.4809,-14.2489 -143.082,-23.08985 -22.7459,-0.83946 -45.47745,-2.67432 -68.23827,-2.51953 z m 583.26957,148.27735 c -0.029,0.002 0.01,0.0161 -0.014,0.0195 0.6541,0.2221 1.3129,0.42856 1.9707,0.63867 -0.4976,-0.17972 -0.9968,-0.35527 -1.4941,-0.53516 -0.1477,-0.0271 -0.3557,-0.1287 -0.4629,-0.12304 z" />
  </g>
</svg>
